# Blender v2.93.5 OBJ File: ''
# www.blender.org
mtllib Ranke4.mtl
o Circle.000_Circle.009
v -0.002929 0.280962 -0.020396
v -0.294289 -0.010039 0.611295
v 0.493039 -0.521201 1.338930
v 0.814636 -0.486559 0.980903
v 0.449277 -0.382607 1.200469
v 0.287158 -0.487624 0.945326
v 1.452151 0.198796 1.194465
v 0.985682 -0.406659 1.195177
v 1.596178 0.208409 0.855735
v 2.190578 0.289420 0.904145
v 3.015859 -0.249829 1.116683
v 2.574010 -0.224563 1.292942
v 3.036885 -0.102868 1.132924
v 3.002851 -0.183305 0.988898
v 2.267639 -0.033986 0.911780
v 2.423909 0.051038 1.235997
v 2.673026 -0.234271 1.008004
v 2.643554 -0.063411 1.128003
v 2.207007 -0.070004 1.111721
v 2.239763 0.041428 1.282368
v 2.520100 -0.336944 1.160958
v 1.493668 0.300572 0.996252
v 1.917116 0.278213 1.248722
v 1.941289 0.091290 1.135651
v 1.957289 0.173879 0.948284
v 1.982471 0.441559 1.106084
v 1.235259 -0.260399 0.918174
v 1.154834 -0.183856 1.041391
v 1.619690 -0.166170 1.006931
v 1.626603 -0.023575 0.881576
v 1.566683 -0.150022 1.179329
v 0.269600 -0.690665 0.802338
v 0.925449 -0.920912 1.064885
v 0.987568 -0.718356 0.915238
v 1.036640 -0.734882 1.257949
v -0.121668 -0.273468 1.107187
v 0.371177 -0.768500 1.289411
v -0.814868 0.554247 0.448501
v -1.653215 0.578917 0.759045
v -0.876793 0.367597 0.338248
v -0.710830 -0.133291 0.877436
v -0.745895 -0.244024 0.593939
v -0.404989 -0.145330 0.393660
v -0.475367 -0.524876 0.520535
v -0.063391 -0.345171 0.803197
v -0.416968 -0.542184 1.236196
v 0.195213 -0.892860 1.108511
v -0.215405 -0.377930 1.296144
v -0.035863 -0.730682 0.819982
v -0.096419 -0.550991 0.663832
v -1.121041 0.735717 0.685339
v -0.491942 -0.088629 1.038718
v -1.137756 0.317695 0.722564
v -1.039477 0.406726 0.863330
v -1.166920 0.356388 0.502729
v -1.166614 0.686387 0.516702
v -1.621250 0.848182 0.837508
v -1.197620 0.530275 0.439516
v -1.619585 0.865469 0.546284
v -1.618615 0.927009 0.710053
v -1.652995 0.726084 0.482180
v -1.640463 0.693704 0.866942
v -2.291451 0.427447 0.943550
v -1.657374 0.592606 0.578751
v -2.354042 0.531556 0.908388
v -2.254993 0.319617 0.857285
v -3.106282 -0.313179 1.046955
v -2.856360 -0.063989 0.863027
v -2.410943 0.555842 0.732035
v -3.110819 -0.143539 0.963341
v -3.079695 -0.179403 1.057820
v -3.501240 0.050382 1.150924
v -2.718229 -0.078861 1.025483
v -2.909464 -0.274195 0.830770
v -2.615887 -0.202221 0.879713
v -2.389549 0.314437 0.677042
v -0.502236 -0.618389 0.894909
v 1.098828 -0.487188 1.289359
v -0.754330 0.599729 0.704650
v -0.905234 0.557954 0.832022
v -0.749443 -0.020371 0.325470
v 0.356276 -0.907630 0.904499
v 3.448820 0.074206 1.159211
v 2.261447 0.357953 1.269621
vt 0.803004 0.051311
vt 0.801737 0.054961
vt 0.801410 0.050308
vt 0.800955 0.038156
vt 0.798013 0.035377
vt 0.802617 0.037755
vt 0.798758 0.050437
vt 0.799238 0.055427
vt 0.822023 0.050914
vt 0.819910 0.053508
vt 0.820310 0.051755
vt 0.797298 0.054769
vt 0.799283 0.046522
vt 0.796737 0.047208
vt 0.818549 0.051005
vt 0.817903 0.053008
vt 0.822216 0.053860
vt 0.821290 0.040913
vt 0.822957 0.040195
vt 0.823102 0.044649
vt 0.821726 0.047559
vt 0.824747 0.044630
vt 0.819240 0.024954
vt 0.820835 0.022738
vt 0.822153 0.021087
vt 0.791468 0.064766
vt 0.790935 0.066117
vt 0.788362 0.064738
vt 0.823821 0.048087
vt 0.793430 0.059409
vt 0.790489 0.058693
vt 0.805226 0.041868
vt 0.802708 0.042627
vt 0.798070 0.087333
vt 0.797893 0.090412
vt 0.795583 0.090997
vt 0.800529 0.090147
vt 0.800228 0.082092
vt 0.791212 0.070611
vt 0.793500 0.067471
vt 0.792604 0.070297
vt 0.817416 0.023799
vt 0.815252 0.018795
vt 0.817948 0.018762
vt 0.795136 0.032662
vt 0.795155 0.044213
vt 0.800718 0.045179
vt 0.823226 0.050864
vt 0.824234 0.055103
vt 0.822711 0.054541
vt 0.793378 0.018942
vt 0.796686 0.021984
vt 0.795511 0.022240
vt 0.791717 0.068149
vt 0.823440 0.032970
vt 0.823503 0.029763
vt 0.825115 0.032359
vt 0.822611 0.018567
vt 0.823860 0.018598
vt 0.823749 0.020906
vt 0.796572 0.024599
vt 0.794757 0.027808
vt 0.791988 0.028473
vt 0.798315 0.025480
vt 0.811903 0.054759
vt 0.812211 0.050849
vt 0.812547 0.053387
vt 0.823186 0.025628
vt 0.823362 0.033739
vt 0.824408 0.032989
vt 0.821605 0.028398
vt 0.823286 0.028615
vt 0.822985 0.031819
vt 0.820798 0.027170
vt 0.793305 0.029986
vt 0.821000 0.031413
vt 0.787913 0.062345
vt 0.788616 0.059678
vt 0.789572 0.062250
vt 0.822656 0.037288
vt 0.824754 0.039422
vt 0.823860 0.028398
vt 0.820810 0.033889
vt 0.819386 0.031139
vt 0.820951 0.037306
vt 0.794496 0.029840
vt 0.819999 0.041402
vt 0.819272 0.037958
vt 0.792943 0.032825
vt 0.796961 0.032498
vt 0.817944 0.041217
vt 0.824766 0.040257
vt 0.805837 0.037776
vt 0.818599 0.049267
vt 0.820804 0.049034
vt 0.821269 0.050620
vt 0.807442 0.043099
vt 0.811621 0.053562
vt 0.811512 0.056093
vt 0.808959 0.053768
vt 0.819240 0.021109
vt 0.804453 0.045143
vt 0.801494 0.045510
vt 0.801223 0.093920
vt 0.798693 0.093233
vt 0.801423 0.048385
vt 0.796231 0.050618
vt 0.797173 0.048109
vt 0.803517 0.049809
vt 0.796388 0.093897
vt 0.796029 0.087019
vt 0.804394 0.047693
vt 0.815004 0.037142
vt 0.816602 0.037282
vt 0.814919 0.043082
vt 0.785158 0.034948
vt 0.790876 0.029767
vt 0.786510 0.035050
vt 0.815183 0.027927
vt 0.817611 0.027811
vt 0.816893 0.032527
vt 0.818844 0.032050
vt 0.787232 0.041561
vt 0.790153 0.039748
vt 0.788593 0.040567
vt 0.816678 0.044072
vt 0.816642 0.049433
vt 0.813330 0.025104
vt 0.813730 0.028052
vt 0.813299 0.043407
vt 0.798054 0.081569
vt 0.790854 0.051211
vt 0.792531 0.051835
vt 0.815003 0.024487
vt 0.791990 0.030412
vt 0.819240 0.037012
vt 0.816067 0.037038
vt 0.815182 0.033082
vt 0.795372 0.042571
vt 0.793501 0.053726
vt 0.798871 0.078936
vt 0.797325 0.079293
vt 0.796688 0.081056
vt 0.800731 0.079251
vt 0.788321 0.034991
vt 0.799632 0.075490
vt 0.801248 0.075451
vt 0.786419 0.038730
vt 0.815327 0.049568
vt 0.791428 0.054078
vt 0.792074 0.057249
vt 0.817833 0.036717
vt 0.790321 0.057371
vt 0.798209 0.075768
vt 0.809896 0.053142
vt 0.808536 0.053562
vt 0.808982 0.048420
vt 0.795821 0.062100
vt 0.817873 0.038132
vt 0.811678 0.053334
vt 0.810599 0.043536
vt 0.807603 0.048674
vt 0.818730 0.053860
vt 0.818730 0.055859
vt 0.817903 0.053945
vt 0.799005 0.027728
vt 0.805066 0.067263
vt 0.802128 0.065061
vt 0.804430 0.065699
vt 0.801467 0.025174
vt 0.802895 0.024860
vt 0.813264 0.044499
vt 0.812626 0.042439
vt 0.813264 0.041980
vt 0.809225 0.043002
vt 0.810291 0.048393
vt 0.800842 0.025003
vt 0.803341 0.021751
vt 0.807500 0.071299
vt 0.807467 0.067831
vt 0.810860 0.038786
vt 0.811425 0.041233
vt 0.802422 0.063603
vn 0.0573 -0.2231 0.9731
vn -0.2088 0.1192 -0.9707
vn 0.0178 0.7095 0.7045
vn 0.0632 0.3154 -0.9468
vn 0.0412 0.7833 0.6202
vn 0.1039 0.7192 0.6870
vn 0.0798 0.8551 0.5123
vn 0.0371 0.9156 -0.4004
vn 0.1497 0.5606 -0.8144
vn 0.0889 -0.1472 0.9851
vn 0.0228 0.9307 -0.3652
vn -0.8072 0.5764 0.1269
vn -0.7921 0.6103 0.0129
vn -0.6427 0.3880 -0.6606
vn 0.5066 0.1757 0.8441
vn 0.2430 0.0224 0.9698
vn -0.4292 0.6146 -0.6619
vn -0.6661 0.6941 0.2729
vn 0.2106 0.0267 0.9772
vn 0.1294 -0.3796 -0.9160
vn 0.8018 0.2401 -0.5472
vn 0.8027 0.2406 -0.5456
vn 0.7985 0.2384 -0.5528
vn 0.8176 0.5754 0.0210
vn 0.8005 0.5980 0.0390
vn 0.3586 -0.1531 0.9209
vn -0.2408 -0.6745 0.6979
vn -0.1428 0.0836 -0.9862
vn -0.4780 0.2830 0.8315
vn -0.3413 0.8527 -0.3956
vn 0.5689 -0.7044 -0.4246
vn 0.5722 0.4529 0.6837
vn 0.1906 -0.7845 0.5901
vn -0.1617 0.8774 -0.4518
vn 0.0685 0.5813 -0.8108
vn 0.2477 0.0362 -0.9682
vn 0.1090 -0.8762 -0.4694
vn 0.1105 -0.8737 -0.4737
vn 0.1110 -0.8729 -0.4750
vn -0.1932 -0.7143 -0.6727
vn -0.0173 -0.1074 0.9941
vn 0.6647 0.5028 -0.5526
vn 0.1085 -0.8772 -0.4677
vn 0.0614 0.7009 0.7107
vn -0.5873 -0.7465 -0.3126
vn -0.4722 -0.5666 0.6753
vn 0.6063 0.7948 0.0260
vn -0.1565 -0.0606 -0.9858
vn -0.6018 -0.6109 0.5144
vn 0.2170 0.3095 0.9258
vn 0.5185 0.6550 -0.5497
vn -0.3337 0.8652 0.3744
vn -0.2018 0.6888 0.6963
vn -0.1993 0.6886 0.6972
vn -0.2000 0.6886 0.6970
vn -0.0968 0.7984 -0.5943
vn -0.1990 0.6886 0.6974
vn -0.0533 0.7704 -0.6353
vn -0.0709 0.0450 0.9965
vn -0.5145 -0.8030 -0.3007
vn -0.4473 -0.5046 0.7385
vn -0.5457 -0.7486 -0.3766
vn -0.3949 -0.7327 0.5543
vn 0.3797 -0.4424 0.8125
vn 0.1455 -0.5956 -0.7900
vn 0.6643 -0.7032 -0.2532
vn 0.2407 -0.0762 -0.9676
vn 0.4832 -0.5911 -0.6458
vn -0.0240 -0.1138 -0.9932
vn 0.5452 -0.8024 0.2428
vn -0.6118 0.3785 -0.6946
vn -0.1026 -0.0767 0.9918
vn -0.4444 0.3433 0.8274
vn 0.5934 -0.5880 -0.5496
vn 0.7397 -0.6442 0.1947
vn 0.5733 -0.5565 -0.6014
vn 0.0690 -0.7380 0.6713
vn 0.7171 -0.6381 0.2803
vn 0.1991 -0.6211 -0.7580
vn 0.3624 -0.2062 0.9089
vn -0.0357 -0.9984 0.0441
vn 0.0021 -0.8250 0.5651
vn -0.1238 -0.2026 0.9714
vn -0.3615 -0.9061 -0.2198
vn 0.2143 -0.3447 -0.9139
vn -0.1501 -0.6768 -0.7207
vn 0.2405 0.8342 -0.4962
vn 0.2512 -0.5853 -0.7709
vn 0.0677 -0.3276 -0.9424
vn -0.0903 -0.1526 0.9842
vn 0.4650 0.4825 -0.7423
vn 0.3096 -0.3526 -0.8831
vn 0.7979 0.2381 -0.5538
vn -0.2686 -0.9155 -0.2995
vn -0.2646 -0.9310 -0.2515
vn 0.2814 0.7739 0.5674
vn 0.4846 0.4358 -0.7584
vn 0.4186 0.8986 -0.1317
vn -0.4093 0.8549 -0.3188
vn -0.3033 0.8132 0.4967
vn -0.7403 -0.5902 0.3221
vn -0.6360 -0.3693 0.6776
vn 0.0629 0.4551 0.8882
vn -0.0710 0.2623 0.9624
vn -0.4720 0.1558 -0.8677
vn -0.6984 -0.5544 -0.4526
vn -0.6958 -0.5563 -0.4543
vn -0.6978 -0.5548 -0.4530
vn -0.7362 0.5966 0.3197
vn 0.6630 0.4362 -0.6084
vn 0.4595 0.3337 -0.8231
vn -0.7309 -0.6480 -0.2143
vn 0.4603 0.5234 0.7170
vn -0.0372 0.2996 0.9533
vn -0.3219 -0.6824 0.6563
vn -0.4441 -0.8906 -0.0978
vn 0.2305 0.1075 -0.9671
vn -0.8913 -0.3740 0.2563
vn -0.6073 0.2306 0.7603
vn -0.8193 -0.5733 0.0078
vn -0.5257 -0.2991 0.7963
vn -0.4851 -0.1308 -0.8646
vn -0.0068 0.4443 -0.8959
vn -0.0119 0.5115 -0.8592
vn 0.3420 0.8730 -0.3478
vn 0.0793 0.1771 0.9810
vn 0.3250 0.8813 -0.3430
vn 0.3237 0.8851 -0.3345
vn 0.3240 0.8841 -0.3367
vn 0.3254 0.8802 -0.3454
vn 0.3345 0.8073 0.4862
vn -0.6394 0.4944 0.5889
vn -0.3149 -0.3729 -0.8728
vn -0.4464 -0.3743 -0.8128
vn 0.1086 0.4232 -0.8995
vn -0.4545 -0.8889 -0.0570
vn -0.3094 -0.5507 -0.7752
vn 0.0861 0.3992 -0.9128
vn 0.3878 -0.6538 0.6497
vn 0.1144 -0.5848 -0.8031
vn 0.0411 0.1821 0.9824
vn -0.3695 0.4599 -0.8074
vn 0.3836 -0.9201 -0.0787
vn 0.5857 -0.3746 0.7188
vn 0.5872 -0.3753 0.7172
vn 0.5823 -0.3732 0.7223
vn -0.1962 0.9472 0.2535
vn -0.1170 0.2540 0.9601
vn -0.6954 -0.5567 -0.4545
vn -0.4201 0.2404 -0.8750
vn 0.1171 -0.1035 0.9877
vn -0.2108 0.8888 0.4069
vn 0.5811 -0.3728 0.7234
vn -0.3441 0.1795 -0.9216
vn 0.3218 -0.9224 -0.2137
vn -0.4048 0.8791 0.2517
vn -0.8797 -0.3674 0.3018
vn 0.6986 -0.5049 -0.5070
vn -0.2748 -0.6422 0.7156
vn 0.0727 0.1399 0.9875
vn 0.2605 0.7827 0.5653
vn 0.3282 0.8003 0.5018
vn 0.7442 0.6049 -0.2833
vn -0.4271 -0.8539 0.2974
vn 0.3091 -0.5282 0.7909
vn 0.3015 0.9240 -0.2353
vn 0.4994 0.8517 0.1588
vn -0.6059 -0.4759 -0.6375
vn 0.0650 0.7583 -0.6486
vn 0.1564 -0.1108 0.9815
vn 0.2323 -0.9720 0.0362
vn 0.3781 -0.5586 0.7382
vn -0.5308 0.2580 -0.8073
vn 0.2527 -0.4473 -0.8580
usemtl Material.002
s 1
f 37/1/1 35/2/1 3/3/1
f 4/4/2 27/5/2 34/6/2
f 5/7/3 3/3/3 78/8/3
f 34/9/4 6/10/4 4/11/4
f 5/7/5 78/8/5 8/12/5
f 48/13/6 3/3/6 5/7/6
f 48/13/7 5/7/7 36/14/7
f 8/15/8 6/10/8 5/16/8
f 6/10/9 34/9/9 32/17/9
f 35/2/10 78/8/10 3/3/10
f 8/15/11 4/11/11 6/10/11
f 7/18/12 22/19/12 28/20/12
f 7/18/13 28/20/13 8/21/13
f 22/19/14 27/22/14 28/20/14
f 84/23/15 16/24/15 18/25/15
f 20/26/16 16/27/16 84/28/16
f 27/22/17 4/29/17 28/20/17
f 8/21/18 28/20/18 4/29/18
f 78/8/19 31/30/19 7/31/19
f 34/6/20 82/32/20 32/33/20
f 2/34/21 45/35/22 50/36/23
f 36/37/24 45/35/24 2/34/24
f 2/34/25 79/38/25 36/37/25
f 13/39/26 12/40/26 11/41/26
f 46/42/27 47/43/27 37/44/27
f 27/5/28 30/45/28 34/6/28
f 52/46/29 46/47/29 48/13/29
f 83/48/30 14/49/30 13/50/30
f 83/51/31 11/52/31 14/53/31
f 16/27/32 12/40/32 18/54/32
f 21/55/33 11/56/33 12/57/33
f 13/58/34 14/59/34 17/60/34
f 13/58/35 17/60/35 18/25/35
f 17/61/36 15/62/36 10/63/36
f 17/61/37 11/52/38 21/64/39
f 17/61/40 21/64/40 15/62/40
f 11/65/41 83/66/41 13/67/41
f 17/60/42 10/68/42 18/25/42
f 17/61/37 14/53/43 11/52/38
f 12/40/44 13/39/44 18/54/44
f 19/69/45 15/70/45 21/55/45
f 21/71/46 12/72/46 20/73/46
f 18/25/47 10/68/47 26/74/47
f 10/63/48 15/62/48 25/75/48
f 20/73/49 19/76/49 21/71/49
f 16/27/50 20/26/50 12/40/50
f 18/25/51 26/74/51 84/23/51
f 26/77/52 22/78/52 7/31/52
f 84/28/53 26/77/54 23/79/55
f 22/19/56 26/80/56 9/81/56
f 26/77/54 7/31/57 23/79/55
f 10/68/58 9/82/58 26/74/58
f 23/79/59 20/26/59 84/28/59
f 19/76/60 24/83/60 15/84/60
f 24/83/61 20/73/61 23/85/61
f 24/86/62 25/75/62 15/62/62
f 19/76/63 20/73/63 24/83/63
f 31/87/64 24/88/64 23/85/64
f 10/63/65 25/75/65 9/89/65
f 29/90/66 25/75/66 24/86/66
f 9/89/67 25/75/67 30/45/67
f 30/45/68 25/75/68 29/90/68
f 30/45/69 27/5/69 9/89/69
f 24/88/70 31/87/70 29/91/70
f 22/19/71 9/92/71 27/22/71
f 7/31/72 31/30/72 23/79/72
f 8/12/73 78/8/73 7/31/73
f 34/6/74 29/90/74 33/93/74
f 33/94/75 31/87/75 35/95/75
f 34/6/76 30/45/76 29/90/76
f 37/96/77 33/94/77 35/95/77
f 31/87/78 33/94/78 29/91/78
f 34/6/79 33/93/79 82/32/79
f 78/8/80 35/2/80 31/30/80
f 82/32/81 33/93/81 47/97/81
f 47/98/82 33/99/82 37/100/82
f 46/42/83 37/44/83 48/101/83
f 82/32/84 47/97/84 49/102/84
f 82/32/85 50/103/85 32/33/85
f 50/103/86 82/32/86 49/102/86
f 5/104/87 6/105/87 36/37/87
f 44/106/88 50/103/88 49/102/88
f 81/107/89 43/108/89 44/106/89
f 3/3/90 48/13/90 37/109/90
f 50/36/91 6/105/91 32/110/91
f 50/103/92 44/106/92 43/108/92
f 50/36/23 43/111/93 2/34/21
f 49/102/94 47/97/94 77/112/94
f 77/112/95 44/106/95 49/102/95
f 36/14/96 52/46/96 48/13/96
f 45/35/97 6/105/97 50/36/97
f 45/35/98 36/37/98 6/105/98
f 60/113/99 59/114/99 69/115/99
f 60/116/100 65/117/100 57/118/100
f 42/119/101 41/120/101 53/121/101
f 41/120/102 54/122/102 53/121/102
f 36/14/103 79/123/103 52/46/103
f 54/124/104 52/46/104 80/125/104
f 69/115/105 76/126/105 68/127/105
f 44/128/106 42/119/107 81/129/108
f 65/130/109 69/115/109 68/127/109
f 38/131/110 2/34/110 43/111/110
f 38/132/111 43/108/111 40/133/111
f 42/119/112 44/128/112 77/134/112
f 52/46/113 79/123/113 80/125/113
f 65/117/114 63/135/114 57/118/114
f 53/121/115 54/122/115 62/136/115
f 53/121/116 64/137/116 55/138/116
f 81/107/117 40/133/117 43/108/117
f 42/119/118 77/134/118 41/120/118
f 41/139/119 46/47/119 52/46/119
f 42/119/120 53/121/120 55/138/120
f 54/124/121 41/139/121 52/46/121
f 55/140/122 40/133/122 81/107/122
f 56/141/123 38/131/123 58/142/123
f 58/142/124 38/131/124 40/143/124
f 51/144/125 79/38/125 56/141/125
f 80/125/126 57/118/126 62/145/126
f 59/146/127 60/147/128 51/144/129
f 59/146/127 51/144/129 56/141/130
f 51/148/131 60/116/131 80/125/131
f 73/149/132 65/130/132 68/127/132
f 58/150/133 55/140/133 64/151/133
f 58/150/134 40/133/134 55/140/134
f 58/142/135 59/146/135 56/141/135
f 39/152/136 64/137/136 53/121/136
f 58/150/137 64/151/137 61/153/137
f 59/146/138 58/142/138 61/154/138
f 39/155/139 62/156/139 66/157/139
f 64/151/140 76/158/140 61/153/140
f 63/135/141 62/145/141 57/118/141
f 69/115/142 59/114/142 61/159/142
f 39/155/143 66/157/143 64/160/143
f 75/161/144 66/157/145 63/162/146
f 68/163/147 70/164/147 73/165/147
f 73/166/148 63/135/148 65/117/148
f 42/119/107 55/138/149 81/129/108
f 70/167/150 68/168/150 74/169/150
f 73/166/151 71/170/151 67/171/151
f 73/172/152 70/173/152 71/174/152
f 63/162/146 73/175/153 75/161/144
f 76/126/154 69/115/154 61/159/154
f 76/176/155 64/160/155 66/157/155
f 65/130/156 60/113/156 69/115/156
f 77/134/157 46/42/157 41/120/157
f 75/161/158 76/176/158 66/157/158
f 39/152/159 53/121/159 62/136/159
f 54/124/160 80/125/160 62/145/160
f 79/123/161 51/148/161 80/125/161
f 80/125/162 60/116/162 57/118/162
f 38/131/163 79/38/163 2/34/163
f 77/134/164 47/43/164 46/42/164
f 62/156/165 63/162/165 66/157/165
f 38/131/166 56/141/166 79/38/166
f 70/177/167 72/178/167 71/170/167
f 72/179/168 74/169/168 67/180/168
f 72/179/169 70/167/169 74/169/169
f 71/170/170 72/178/170 67/171/170
f 67/181/171 74/182/171 75/161/171
f 73/175/172 67/181/172 75/161/172
f 74/169/173 68/168/173 76/158/173
f 75/183/174 74/169/174 76/158/174
