# Blender v2.93.5 OBJ File: ''
# www.blender.org
mtllib Ranke1.mtl
o Circle.000_Circle.009
v 0.019791 0.256459 -0.455121
v -0.873878 -0.279829 -0.933083
v -0.968993 -0.332031 -0.821150
v -1.180435 -0.219809 -0.956968
v -0.315021 0.011879 -0.817522
v -0.066347 0.101138 -0.701261
v 0.707798 0.072247 -0.785951
v 0.613902 0.072720 -0.739040
v 0.663550 0.157341 -0.821435
v 0.193630 -0.022156 -0.860452
v 0.356701 0.071901 -0.813607
v 0.134409 -0.162424 -0.768669
v 0.144606 -0.186190 -0.642308
v -0.150137 -0.116725 -0.663785
v -0.134055 -0.015805 -0.750188
v 0.012354 0.020733 -0.504848
v -0.588842 -0.206539 -0.887576
v -0.665584 -0.221579 -0.780236
v -0.384574 -0.248536 -0.822948
v -0.653613 -0.358917 -0.975437
v -0.436122 -0.298504 -0.726351
v -0.878551 -0.566088 -0.868116
v -1.483853 -0.174482 -0.836741
v -1.333455 -0.627556 -0.893965
v -0.826337 -0.489435 -1.037417
v -2.409956 0.409517 -0.728604
v -1.972488 0.393807 -1.013702
v -1.702044 -0.202635 -1.131637
v -1.447757 -0.113519 -0.992928
v -1.357732 -0.591636 -1.052372
v -1.444725 -0.223995 -1.142057
v -1.611800 -0.286942 -0.791160
v -1.286015 -0.524564 -0.783713
v -1.329494 -0.422048 -1.157475
v -1.685754 -0.437713 -0.875899
v -2.133201 0.282488 -0.915464
v -2.030385 0.260972 -0.753663
v -1.888966 0.441605 -0.934371
v -2.384072 0.588187 -0.660784
v -2.378381 0.599045 -0.879128
v -2.880888 0.379256 -0.713337
v -2.783816 0.283886 -0.793785
v -3.432265 0.098812 -1.080812
v -3.289467 0.308418 -1.025435
v -2.932418 0.435195 -0.810806
v -3.788893 0.171385 -1.105325
v -2.843180 0.315471 -0.717962
v -3.459668 0.170361 -1.045705
v -3.342927 0.210808 -1.113654
v -0.448675 0.020968 -0.632577
v -3.063954 0.205012 -0.979327
v -2.864613 0.369221 -0.901035
v -2.414034 0.472485 -0.873475
v -1.740595 -0.363390 -1.026983
v -0.720628 -0.439974 -0.759254
v -1.864412 0.421323 -0.814853
v -1.994902 0.368377 -0.717142
v 0.960719 0.252877 -0.650043
v 0.298896 -0.040902 -0.674485
vt 0.797874 0.056165
vt 0.798103 0.053349
vt 0.801263 0.050063
vt 0.811619 0.053566
vt 0.809235 0.056319
vt 0.808910 0.053607
vt 0.798061 0.045739
vt 0.800955 0.038156
vt 0.797749 0.035200
vt 0.800342 0.036052
vt 0.821985 0.050696
vt 0.819910 0.053508
vt 0.820301 0.051608
vt 0.796405 0.047046
vt 0.822726 0.044729
vt 0.823828 0.047945
vt 0.821746 0.048260
vt 0.822216 0.053860
vt 0.801760 0.054891
vt 0.803093 0.051054
vt 0.818428 0.051458
vt 0.822086 0.040566
vt 0.824744 0.044371
vt 0.819350 0.025227
vt 0.821443 0.021640
vt 0.823577 0.021123
vt 0.792374 0.065838
vt 0.791377 0.067141
vt 0.788502 0.064110
vt 0.789421 0.059171
vt 0.791473 0.070463
vt 0.792604 0.070297
vt 0.825115 0.032359
vt 0.823760 0.034521
vt 0.823521 0.029769
vt 0.823156 0.018580
vt 0.822318 0.054697
vt 0.823066 0.050752
vt 0.823705 0.054710
vt 0.790879 0.070725
vt 0.795511 0.022240
vt 0.792878 0.018567
vt 0.795900 0.021152
vt 0.812547 0.053387
vt 0.811825 0.053539
vt 0.812547 0.050114
vt 0.795924 0.024910
vt 0.796122 0.026605
vt 0.791801 0.029491
vt 0.798387 0.025480
vt 0.793369 0.030066
vt 0.822187 0.026804
vt 0.823291 0.037106
vt 0.824754 0.039422
vt 0.821856 0.037519
vt 0.795021 0.056743
vt 0.821170 0.030079
vt 0.820851 0.033900
vt 0.819484 0.030602
vt 0.823020 0.030495
vt 0.820969 0.037424
vt 0.794496 0.029840
vt 0.820256 0.042121
vt 0.819318 0.037955
vt 0.793498 0.032713
vt 0.797545 0.032712
vt 0.818049 0.041664
vt 0.824766 0.040257
vt 0.794657 0.059069
vt 0.818599 0.049274
vt 0.820821 0.049091
vt 0.804977 0.037646
vt 0.795845 0.091212
vt 0.797924 0.090120
vt 0.798867 0.093523
vt 0.811621 0.056660
vt 0.801278 0.045138
vt 0.807297 0.043302
vt 0.804994 0.043662
vt 0.801189 0.093623
vt 0.800522 0.089959
vt 0.801341 0.048455
vt 0.817412 0.023998
vt 0.815215 0.019052
vt 0.817906 0.018883
vt 0.804329 0.047800
vt 0.800608 0.044998
vt 0.802734 0.048390
vt 0.815004 0.037142
vt 0.817526 0.037886
vt 0.814904 0.043984
vt 0.815038 0.024752
vt 0.816015 0.032655
vt 0.818857 0.032057
vt 0.790163 0.039739
vt 0.788314 0.039948
vt 0.816664 0.044284
vt 0.817084 0.050807
vt 0.813341 0.043515
vt 0.823860 0.021303
vt 0.824652 0.018567
vt 0.824652 0.021499
vt 0.798089 0.081435
vt 0.790766 0.051265
vt 0.791912 0.052418
vt 0.791082 0.029653
vt 0.792173 0.030293
vt 0.785859 0.035001
vt 0.800233 0.081728
vt 0.817903 0.053880
vt 0.817122 0.053661
vt 0.786908 0.041245
vt 0.803377 0.024470
vt 0.793608 0.053482
vt 0.790346 0.057237
vt 0.798578 0.075783
vt 0.801248 0.075451
vt 0.796689 0.081053
vt 0.792035 0.057232
vt 0.818450 0.036881
vt 0.816068 0.037050
vt 0.809299 0.053327
vt 0.809006 0.048821
vt 0.811698 0.053369
vt 0.795957 0.062036
vt 0.788298 0.034913
vt 0.794981 0.059617
vt 0.810583 0.043706
vt 0.807608 0.048495
vt 0.813341 0.025187
vt 0.802555 0.024088
vt 0.813264 0.044499
vt 0.812626 0.042439
vt 0.813264 0.041980
vt 0.810264 0.048299
vt 0.807353 0.071839
vt 0.805489 0.066999
vt 0.807467 0.067831
vt 0.803281 0.020188
vt 0.810973 0.038263
vt 0.811425 0.041233
vt 0.803551 0.066101
vt 0.802366 0.063588
vn -0.0902 0.3311 0.9393
vn 0.1434 -0.9602 -0.2397
vn 0.0537 0.1047 0.9931
vn 0.0111 0.4959 -0.8683
vn 0.2035 0.8380 -0.5063
vn 0.0660 0.3094 0.9486
vn -0.3546 0.9259 0.1304
vn 0.2281 0.9099 -0.3463
vn 0.0625 -0.7426 0.6668
vn 0.1276 0.8529 0.5062
vn -0.5981 0.7326 -0.3249
vn 0.5094 0.5526 0.6597
vn 0.4431 -0.2821 0.8509
vn -0.2655 -0.1067 0.9582
vn -0.2431 0.9692 -0.0380
vn 0.4024 -0.4269 0.8098
vn 0.3659 -0.9088 -0.2005
vn -0.2085 0.8003 0.5622
vn -0.4996 0.7368 0.4556
vn -0.1249 0.7288 0.6732
vn 0.5182 -0.0854 -0.8510
vn 0.2702 -0.7911 0.5487
vn -0.1549 0.6424 -0.7505
vn 0.2214 -0.5977 -0.7706
vn 0.1895 -0.2923 -0.9374
vn 0.1986 0.0061 0.9801
vn -0.2676 0.4996 -0.8239
vn 0.1502 0.9346 0.3224
vn -0.2377 0.9465 -0.2183
vn -0.1146 0.9024 0.4153
vn -0.1820 0.1394 0.9734
vn -0.3729 -0.3926 -0.8407
vn -0.2140 0.7068 -0.6742
vn -0.2028 -0.6285 0.7509
vn -0.2650 -0.6024 -0.7529
vn -0.2150 -0.9628 -0.1637
vn 0.4847 -0.8429 0.2335
vn 0.3664 0.1705 -0.9147
vn 0.6585 -0.5473 -0.5167
vn 0.3383 -0.0708 -0.9384
vn 0.5521 -0.8234 -0.1313
vn -0.5055 0.7630 -0.4028
vn 0.3515 -0.8143 0.4619
vn -0.2444 0.5602 -0.7915
vn -0.7169 0.2435 0.6533
vn 0.0747 -0.7036 0.7067
vn 0.5527 -0.8099 -0.1962
vn 0.5719 -0.4231 -0.7028
vn 0.5285 -0.8355 -0.1502
vn 0.3605 -0.8258 0.4338
vn 0.3717 0.7496 -0.5477
vn 0.1861 -0.9154 -0.3570
vn 0.2287 0.1538 -0.9613
vn 0.5271 -0.1233 -0.8408
vn 0.1269 -0.5377 -0.8335
vn 0.2543 0.2212 -0.9415
vn 0.2668 0.9047 0.3322
vn -0.0357 0.0569 -0.9977
vn -0.4756 -0.8708 -0.1246
vn -0.3280 -0.4586 -0.8259
vn -0.3273 -0.4581 -0.8265
vn -0.3270 -0.4579 -0.8267
vn -0.3283 -0.4588 -0.8257
vn -0.3019 -0.6284 0.7169
vn 0.2901 0.8669 0.4054
vn -0.2833 -0.3605 0.8887
vn -0.2788 0.9595 0.0404
vn -0.8496 -0.5251 0.0501
vn -0.7764 -0.4586 0.4324
vn -0.2337 -0.2429 0.9415
vn 0.0479 0.8231 -0.5659
vn -0.5649 0.5505 0.6146
vn -0.0724 0.9068 0.4154
vn 0.6869 0.5906 -0.4236
vn 0.4183 0.5131 -0.7495
vn 0.2876 0.0602 0.9559
vn -0.0598 -0.1073 0.9924
vn 0.7880 0.4896 0.3732
vn -0.0246 0.1832 -0.9828
vn -0.5210 0.7115 -0.4715
vn 0.4967 0.2872 0.8190
vn -0.3463 -0.3248 0.8801
vn -0.4146 -0.3072 0.8566
vn -0.4941 -0.0525 -0.8678
vn -0.4011 -0.2082 -0.8921
vn -0.0378 -0.3105 0.9498
vn 0.3201 0.9458 0.0554
vn 0.3146 0.9444 0.0956
vn 0.1710 0.7540 -0.6343
vn 0.3883 0.4869 0.7824
vn -0.1493 -0.0021 -0.9888
vn -0.5636 -0.7633 -0.3159
vn 0.3535 -0.8542 -0.3812
vn 0.0759 -0.0658 -0.9949
vn 0.1022 -0.3659 0.9250
vn 0.2003 -0.6876 -0.6980
vn 0.0034 -0.9221 0.3868
vn -0.6675 -0.2872 -0.6870
vn -0.2838 -0.5078 0.8134
vn -0.5511 0.5933 0.5868
vn -0.2814 0.6615 -0.6951
vn -0.3631 0.7123 0.6007
vn 0.5835 -0.3616 -0.7272
vn -0.3566 -0.9286 0.1031
vn -0.0731 -0.3447 0.9359
vn 0.7789 0.6248 -0.0540
vn -0.5100 -0.8306 -0.2235
vn 0.1951 -0.8417 0.5034
vn 0.0075 -0.2869 -0.9579
vn -0.1575 -0.4830 0.8614
vn 0.3627 -0.5167 -0.7755
vn 0.2132 -0.9514 0.2221
vn 0.1367 0.6220 -0.7710
vn 0.4303 -0.0943 -0.8977
usemtl Material.002
s 1
f 55/1/1 3/2/1 33/3/1
f 30/4/2 22/5/2 24/6/2
f 3/2/3 32/7/3 33/3/3
f 2/8/4 17/9/4 20/10/4
f 20/11/5 4/12/5 2/13/5
f 32/7/6 3/2/6 23/14/6
f 18/15/7 2/16/7 3/17/7
f 4/12/8 20/11/8 31/18/8
f 22/19/9 33/3/9 24/20/9
f 3/21/10 2/13/10 4/12/10
f 50/22/11 17/23/11 18/15/11
f 16/24/12 59/25/12 11/26/12
f 13/27/13 59/28/13 16/29/13
f 50/30/14 55/1/14 16/29/14
f 17/23/15 2/16/15 18/15/15
f 8/31/16 13/27/16 7/32/16
f 13/33/17 12/34/17 7/35/17
f 9/36/18 11/26/18 59/25/18
f 8/37/19 58/38/19 9/39/19
f 59/28/20 8/31/20 9/40/20
f 9/41/21 58/42/21 7/43/21
f 8/44/22 7/45/22 58/46/22
f 11/47/23 10/48/23 6/49/23
f 12/50/24 10/48/24 7/43/24
f 10/48/25 9/41/25 7/43/25
f 13/27/26 8/31/26 59/28/26
f 6/49/27 10/48/27 15/51/27
f 11/26/28 6/52/28 16/24/28
f 50/22/29 6/53/29 5/54/29
f 6/53/30 50/22/30 16/55/30
f 18/56/31 3/2/31 55/1/31
f 12/57/32 14/58/32 10/59/32
f 10/48/33 11/47/33 9/41/33
f 14/58/34 13/60/34 16/61/34
f 14/62/35 15/51/35 10/48/35
f 12/57/36 13/60/36 14/58/36
f 21/63/37 14/64/37 16/61/37
f 6/49/38 15/51/38 5/65/38
f 19/66/39 15/51/39 14/62/39
f 5/65/40 15/51/40 19/66/40
f 14/64/41 21/63/41 19/67/41
f 50/22/42 5/68/42 17/23/42
f 55/1/43 21/69/43 16/29/43
f 5/65/44 20/10/44 17/9/44
f 18/56/45 55/1/45 50/30/45
f 55/1/46 33/3/46 22/19/46
f 25/70/47 21/63/47 22/71/47
f 25/72/48 20/10/48 19/66/48
f 21/63/49 25/70/49 19/67/49
f 55/1/50 22/19/50 21/69/50
f 31/73/51 29/74/51 4/75/51
f 25/76/52 22/5/52 30/4/52
f 25/72/53 31/77/53 20/10/53
f 5/65/54 19/66/54 20/10/54
f 25/72/55 30/78/55 34/79/55
f 31/77/56 25/72/56 34/79/56
f 3/80/57 4/75/57 23/81/57
f 28/82/58 31/77/58 34/79/58
f 35/83/59 30/84/59 24/85/59
f 30/78/60 28/82/61 34/79/62
f 28/82/61 30/78/60 54/86/63
f 33/3/64 35/87/64 24/88/64
f 29/74/65 23/81/65 4/75/65
f 32/7/66 35/87/66 33/3/66
f 39/89/67 40/90/67 45/91/67
f 54/92/68 35/83/68 36/93/68
f 35/83/69 37/94/69 36/93/69
f 37/95/70 32/7/70 57/96/70
f 45/91/71 52/97/71 44/98/71
f 41/99/72 45/91/72 44/98/72
f 49/100/73 46/101/73 48/102/73
f 38/103/74 29/74/74 31/73/74
f 38/104/75 31/77/75 27/105/75
f 32/7/76 23/14/76 57/96/76
f 41/106/77 47/107/77 39/108/77
f 23/81/78 29/74/78 56/109/78
f 28/82/79 27/105/79 31/77/79
f 44/98/80 49/110/80 48/111/80
f 56/112/81 57/96/81 23/14/81
f 37/95/82 35/87/82 32/7/82
f 41/106/83 43/113/83 47/107/83
f 36/114/84 27/105/84 28/82/84
f 40/115/85 27/105/85 36/114/85
f 57/96/86 39/108/86 37/95/86
f 40/116/87 39/117/87 56/109/87
f 40/116/88 56/109/88 38/103/88
f 40/116/89 38/103/89 27/118/89
f 56/112/90 39/108/90 57/96/90
f 40/115/91 36/114/91 53/119/91
f 26/120/92 53/121/92 36/93/92
f 26/122/93 42/123/93 53/124/93
f 53/119/94 52/125/94 40/115/94
f 47/107/95 26/126/95 39/108/95
f 42/127/96 52/125/96 53/119/96
f 51/128/97 42/123/97 47/129/97
f 54/92/98 36/93/98 28/130/98
f 41/106/99 48/131/99 43/113/99
f 41/132/100 44/133/100 48/134/100
f 52/97/101 45/91/101 40/90/101
f 41/99/102 39/89/102 45/91/102
f 51/128/103 52/135/103 42/123/103
f 26/120/104 36/93/104 37/94/104
f 39/108/105 26/126/105 37/95/105
f 38/103/106 56/109/106 29/74/106
f 54/92/107 30/84/107 35/83/107
f 26/122/108 47/129/108 42/123/108
f 46/136/109 49/137/109 43/138/109
f 48/131/110 46/139/110 43/113/110
f 43/140/111 49/141/111 51/128/111
f 47/129/112 43/140/112 51/128/112
f 49/137/113 44/142/113 52/125/113
f 51/143/114 49/137/114 52/125/114
